<svg width="403" height="160" viewBox="0 0 403 160" fill="none" xmlns="http://www.w3.org/2000/svg">
<rect width="403" height="160" fill="black"/>
<path d="M60.616 132.024C51.7413 132.024 45.0853 129.72 40.648 125.112C36.2107 120.419 33.992 114.232 33.992 106.552V95.032C33.992 87.4373 36.2107 81.2933 40.648 76.6C45.0853 71.9067 51.6987 69.56 60.488 69.56C66.0347 69.56 70.6853 70.5413 74.44 72.504C78.1947 74.3813 80.072 76.5147 80.072 78.904C80.072 80.3547 79.5173 81.8053 78.408 83.256C77.384 84.7067 76.1467 85.432 74.696 85.432C74.2693 85.432 72.7333 84.792 70.088 83.512C67.528 82.1467 64.6693 81.464 61.512 81.464C52.1253 81.464 47.432 85.9867 47.432 95.032V106.552C47.432 115.597 52.168 120.12 61.64 120.12C64.8827 120.12 67.784 119.437 70.344 118.072C72.9893 116.621 74.568 115.896 75.08 115.896C76.7867 115.896 78.152 116.579 79.176 117.944C80.2853 119.309 80.84 120.76 80.84 122.296C80.84 124.685 78.8773 126.904 74.952 128.952C71.0267 131 66.248 132.024 60.616 132.024ZM113.979 69.56C121.062 69.56 127.248 72.0773 132.539 77.112C137.83 82.0613 140.475 87.9493 140.475 94.776V106.552C140.475 113.208 137.787 119.139 132.411 124.344C127.12 129.464 120.976 132.024 113.979 132.024C106.896 132.024 100.71 129.464 95.419 124.344C90.1283 119.224 87.483 113.293 87.483 106.552V94.776C87.483 88.0347 90.0857 82.1467 95.291 77.112C100.496 72.0773 106.726 69.56 113.979 69.56ZM127.035 106.552V94.776C127.035 91.3627 125.712 88.2907 123.067 85.56C120.507 82.8293 117.478 81.464 113.979 81.464C110.395 81.464 107.323 82.8293 104.763 85.56C102.203 88.2907 100.923 91.3627 100.923 94.776V106.552C100.923 110.051 102.203 113.208 104.763 116.024C107.323 118.755 110.395 120.12 113.979 120.12C117.478 120.12 120.507 118.755 123.067 116.024C125.712 113.208 127.035 110.051 127.035 106.552ZM189.538 126.648V94.648C189.538 90.808 188.343 87.6507 185.954 85.176C183.65 82.7013 180.877 81.464 177.634 81.464C174.391 81.464 171.575 82.6587 169.186 85.048C166.882 87.4373 165.73 90.68 165.73 94.776V126.52C165.73 127.629 165.047 128.653 163.682 129.592C162.317 130.531 160.738 131 158.946 131C157.069 131 155.49 130.531 154.21 129.592C152.93 128.653 152.29 127.629 152.29 126.52V74.68C152.29 73.4 152.887 72.376 154.082 71.608C155.362 70.7547 156.983 70.328 158.946 70.328C160.567 70.328 161.975 70.7547 163.17 71.608C164.365 72.376 164.962 73.4 164.962 74.68V79.288C168.631 72.8027 174.306 69.56 181.986 69.56C185.741 69.56 189.069 70.7547 191.97 73.144C194.957 75.448 197.218 78.52 198.754 82.36C200.887 78.1787 203.661 75.0213 207.074 72.888C210.573 70.6693 214.242 69.56 218.082 69.56C224.141 69.56 229.346 71.864 233.698 76.472C238.135 80.9947 240.354 87.096 240.354 94.776V126.52C240.354 127.629 239.671 128.653 238.306 129.592C236.941 130.531 235.362 131 233.57 131C231.863 131 230.327 130.531 228.962 129.592C227.597 128.653 226.914 127.629 226.914 126.52V94.776C226.914 90.5947 225.719 87.3093 223.33 84.92C220.941 82.5307 218.167 81.336 215.01 81.336C211.853 81.336 209.037 82.5307 206.562 84.92C204.173 87.3093 202.978 90.5093 202.978 94.52V126.648C202.978 128.099 202.295 129.208 200.93 129.976C199.65 130.659 198.071 131 196.194 131C194.487 131 192.951 130.659 191.586 129.976C190.221 129.208 189.538 128.099 189.538 126.648ZM255.835 35.512C257.03 34.6587 258.608 34.232 260.571 34.232C262.534 34.232 264.155 34.6587 265.435 35.512C266.8 36.28 267.483 37.304 267.483 38.584V79.288C268.934 76.5573 271.11 74.2533 274.011 72.376C276.912 70.4987 280.24 69.56 283.995 69.56C290.31 69.56 295.686 72.0347 300.123 76.984C304.646 81.9333 306.907 87.864 306.907 94.776V106.552C306.907 113.208 304.646 119.139 300.123 124.344C295.6 129.464 290.352 132.024 284.379 132.024C280.539 132.024 276.998 131.043 273.755 129.08C270.512 127.117 268.166 124.771 266.715 122.04V126.52C266.715 127.629 266.075 128.653 264.795 129.592C263.6 130.531 262.192 131 260.571 131C258.694 131 257.115 130.531 255.835 129.592C254.64 128.653 254.043 127.629 254.043 126.52V38.584C254.043 37.304 254.64 36.28 255.835 35.512ZM293.467 106.552V94.776C293.467 91.3627 292.144 88.2907 289.499 85.56C286.939 82.8293 283.91 81.464 280.411 81.464C277.083 81.464 274.096 82.7013 271.451 85.176C268.806 87.6507 267.483 90.8507 267.483 94.776V109.496C267.483 111.373 268.806 113.635 271.451 116.28C274.182 118.84 277.211 120.12 280.539 120.12C284.038 120.12 287.067 118.755 289.627 116.024C292.187 113.208 293.467 110.051 293.467 106.552ZM342.729 69.56C349.812 69.56 355.998 72.0773 361.289 77.112C366.58 82.0613 369.225 87.9493 369.225 94.776V106.552C369.225 113.208 366.537 119.139 361.161 124.344C355.87 129.464 349.726 132.024 342.729 132.024C335.646 132.024 329.46 129.464 324.169 124.344C318.878 119.224 316.233 113.293 316.233 106.552V94.776C316.233 88.0347 318.836 82.1467 324.041 77.112C329.246 72.0773 335.476 69.56 342.729 69.56ZM355.785 106.552V94.776C355.785 91.3627 354.462 88.2907 351.817 85.56C349.257 82.8293 346.228 81.464 342.729 81.464C339.145 81.464 336.073 82.8293 333.513 85.56C330.953 88.2907 329.673 91.3627 329.673 94.776V106.552C329.673 110.051 330.953 113.208 333.513 116.024C336.073 118.755 339.145 120.12 342.729 120.12C346.228 120.12 349.257 118.755 351.817 116.024C354.462 113.208 355.785 110.051 355.785 106.552Z" fill="white"/>
</svg>
